# Blender3D v248 OBJ File: t270u.blend
# www.blender3d.org
v 0.366299 0.248882 0.741391
v -0.366299 0.248882 0.741391
v 0.398438 -0.046875 0.671875
v -0.398438 -0.046875 0.671875
v 0.000000 0.429688 0.742188
v 0.000000 0.351563 0.820313
v 0.000000 -0.709635 0.734375
v 0.000000 0.406250 0.601562
v 0.000000 0.570313 0.570313
v 0.000000 0.941406 -0.312500
v 0.000000 0.562500 -0.851563
v 0.000000 0.070312 -0.828125
v 0.000000 -0.382813 -0.351562
v 0.203125 -0.187500 0.562500
v -0.203125 -0.187500 0.562500
v 0.312500 -0.437500 0.570313
v -0.312500 -0.437500 0.570313
v 0.359375 -0.792969 0.550781
v -0.359375 -0.792969 0.550781
v 0.328125 -0.945313 0.523438
v -0.328125 -0.945313 0.523438
v 0.000000 -0.984375 0.578125
v 0.437500 -0.140625 0.531250
v -0.437500 -0.140625 0.531250
v 0.828125 0.148438 0.445313
v -0.828125 0.148438 0.445313
v 0.859375 0.429688 0.593750
v -0.859375 0.429688 0.593750
v 0.710938 0.484375 0.625000
v -0.710938 0.484375 0.625000
v 0.492188 0.601563 0.687500
v -0.492188 0.601563 0.687500
v 0.320312 0.757813 0.734375
v -0.320312 0.757813 0.734375
v 0.156250 0.718750 0.757813
v -0.156250 0.718750 0.757813
v 0.062500 0.492188 0.750000
v -0.062500 0.492188 0.750000
v 0.154297 0.435547 0.804688
v -0.154297 0.435547 0.804688
v 0.726562 0.203125 0.601563
v -0.726562 0.203125 0.601563
v 0.644531 0.394531 0.695313
v -0.644531 0.394531 0.695313
v 0.429688 0.437500 0.764632
v -0.429688 0.437500 0.764632
v 0.000000 -0.869792 0.697917
v 0.000000 -0.195312 0.750000
v 0.000000 -0.140625 0.742188
v 0.113281 -0.125000 0.777344
v -0.113281 -0.125000 0.777344
v 0.125000 -0.226562 0.750000
v -0.125000 -0.226562 0.750000
v 0.437500 0.546875 0.796875
v -0.437500 0.546875 0.796875
v 0.257812 0.628906 0.843750
v -0.257812 0.628906 0.843750
v 0.000000 0.046875 0.726563
v 0.000000 0.210938 0.765625
v 0.000000 -0.445313 0.750000
v 0.000000 -0.328125 0.742188
v 0.109375 0.460938 0.609375
v -0.109375 0.460938 0.609375
v 0.195312 0.664063 0.617188
v -0.195312 0.664063 0.617188
v 0.335938 0.687500 0.593750
v -0.335938 0.687500 0.593750
v 0.484375 0.554688 0.554688
v -0.484375 0.554688 0.554688
v 0.679688 0.453125 0.492188
v -0.679688 0.453125 0.492188
v 0.773438 0.164063 0.375000
v -0.773438 0.164063 0.375000
v 0.203125 -0.171875 0.500000
v -0.203125 -0.171875 0.500000
v 0.000000 0.898438 0.289062
v 0.000000 -0.484375 0.281250
v 0.000000 -0.976563 0.460938
v 0.000000 -0.687500 0.332031
v 0.859375 0.320313 -0.046875
v -0.859375 0.320313 -0.046875
v 0.796875 0.296875 -0.320313
v -0.796875 0.296875 -0.320313
v 0.617188 0.328125 -0.585938
v -0.617188 0.328125 -0.585938
v 0.570312 -0.109375 0.109375
v -0.570312 -0.109375 0.109375
v 0.593750 -0.125000 -0.164063
v -0.593750 -0.125000 -0.164063
v 0.640625 -0.007813 -0.429688
v -0.640625 -0.007813 -0.429688
v 0.179688 -0.414063 0.257813
v -0.179688 -0.414063 0.257813
v 0.269531 -0.605469 0.386719
v -0.269531 -0.605469 0.386719
v 0.328125 -0.914063 0.398438
v -0.328125 -0.914063 0.398438
v 0.640625 0.714844 -0.320313
v -0.640625 0.714844 -0.320313
v 0.640625 0.703125 0.054687
v -0.640625 0.703125 0.054687
v 1.023438 0.476563 -0.312500
v -1.023438 0.476563 -0.312500
v 0.773438 -0.140625 -0.125000
v -0.773438 -0.140625 -0.125000
v 1.039062 -0.101563 -0.328125
v -1.039062 -0.101563 -0.328125
v 1.281250 0.054687 -0.429688
v -1.281250 0.054687 -0.429688
v 1.351562 0.320312 -0.421875
v -1.351562 0.320312 -0.421875
v 1.234375 0.507812 -0.421875
v -1.234375 0.507812 -0.421875
v 1.023438 0.375000 -0.337891
v -1.023438 0.375000 -0.337891
v 1.183594 0.394531 -0.425781
v -1.183594 0.394531 -0.425781
v 1.255859 0.267578 -0.437500
v -1.255859 0.267578 -0.437500
v 1.054688 0.187500 -0.382813
v -1.054688 0.187500 -0.382813
v 0.847656 0.015625 -0.296875
v -0.847656 0.015625 -0.296875
v 0.740234 0.066406 -0.242188
v -0.740234 0.066406 -0.242188
v 0.718750 -0.023438 -0.171875
v -0.718750 -0.023438 -0.171875
v 1.023438 0.437500 -0.484375
v -1.023438 0.437500 -0.484375
v 1.250000 0.468750 -0.546875
v -1.250000 0.468750 -0.546875
v 1.367188 0.296875 -0.500000
v -1.367188 0.296875 -0.500000
v 1.312500 0.054687 -0.531250
v -1.312500 0.054687 -0.531250
v 0.914062 -0.105469 -0.410156
v -0.914062 -0.105469 -0.410156
vt 0.273181 0.677563
vt 0.289469 0.638740
vt 0.324069 0.640508
vt 0.934256 0.513491
vt 0.964591 0.498079
vt 0.994733 0.526413
vt 0.320429 0.513408
vt 0.361157 0.489415
vt 0.362348 0.529464
vt 0.855610 0.429165
vt 0.840743 0.392785
vt 0.886787 0.398092
vt 0.448217 0.691745
vt 0.515615 0.603613
vt 0.526719 0.659125
vt 0.759615 0.611070
vt 0.747522 0.556734
vt 0.843257 0.609068
vt 0.373587 0.455425
vt 0.350106 0.444771
vt 0.376516 0.425684
vt 0.520797 0.430819
vt 0.547256 0.449840
vt 0.523801 0.460553
vt 0.139432 0.188477
vt 0.178377 0.148444
vt 0.197761 0.167415
vt 0.698905 0.172104
vt 0.718242 0.153085
vt 0.757286 0.193020
vt 0.216956 0.172415
vt 0.679723 0.177152
vt 0.171523 0.946995
vt 0.079259 0.936958
vt 0.157424 0.908934
vt 0.506613 0.950257
vt 0.584779 0.978281
vt 0.492515 0.988318
vt 0.289814 0.892582
vt 0.281630 0.920838
vt 0.249091 0.927059
vt 0.414947 0.968383
vt 0.382407 0.962161
vt 0.374224 0.933905
vt 0.210674 0.816024
vt 0.286036 0.822846
vt 0.267163 0.858412
vt 0.396874 0.899735
vt 0.378001 0.864169
vt 0.453363 0.857347
vt 0.561424 0.648467
vt 0.588654 0.670095
vt 0.546782 0.679518
vt 0.749634 0.637434
vt 0.707999 0.645619
vt 0.724059 0.615231
vt 0.551034 0.638314
vt 0.729438 0.601983
vt 0.045631 0.125840
vt 0.850930 0.130149
vt 0.154685 0.297672
vt 0.233930 0.227128
vt 0.301223 0.273201
vt 0.595708 0.278148
vt 0.662886 0.231907
vt 0.742307 0.302253
vt 0.220695 0.353970
vt 0.676438 0.358715
vt 0.201400 0.713405
vt 0.202174 0.748028
vt 0.149119 0.723191
vt 0.826895 0.906274
vt 0.770088 0.920582
vt 0.777425 0.886736
vt 0.163367 0.767653
vt 0.804462 0.947220
vt 0.023663 0.196346
vt 0.873074 0.200599
vt 0.052678 0.893530
vt 0.118760 0.846449
vt 0.545278 0.887772
vt 0.611360 0.934854
vt 0.315479 0.879591
vt 0.348559 0.920914
vt 0.297603 0.929714
vt 0.366435 0.971038
vt 0.245080 0.946995
vt 0.418957 0.988318
vt 0.082494 0.712891
vt 0.106658 0.776924
vt 0.858378 0.967095
vt 0.894264 0.908817
vt 0.062489 0.736858
vt 0.909352 0.936147
vt 0.254995 0.186815
vt 0.641720 0.191647
vt 0.039474 0.721429
vt 0.934878 0.925371
vt 0.174524 0.790054
vt 0.789253 0.967095
vt 0.028610 0.533249
vt 0.062733 0.504718
vt 0.067234 0.537564
vt 0.208089 0.641631
vt 0.217303 0.609785
vt 0.246930 0.642960
vt 0.111523 0.537487
vt 0.164279 0.635136
vt 0.143004 0.492859
vt 0.177303 0.555031
vt 0.096650 0.642960
vt 0.139599 0.586417
vt 0.215871 0.503585
vt 0.065947 0.586468
vt 0.257617 0.555031
vt 0.231090 0.553003
vt 0.043725 0.633158
vt 0.017185 0.631319
vt 0.225896 0.765420
vt 0.227756 0.712891
vt 0.751646 0.881225
vt 0.743495 0.933152
vt 0.227493 0.136243
vt 0.285290 0.146332
vt 0.611324 0.151240
vt 0.669096 0.141006
vt 0.269991 0.397441
vt 0.627251 0.402309
vt 0.305405 0.455340
vt 0.591983 0.460297
vt 0.282617 0.442853
vt 0.614739 0.447753
vt 0.424785 0.345031
vt 0.472326 0.350287
vt 0.319403 0.208645
vt 0.577367 0.213638
vt 0.445225 0.216476
vt 0.400059 0.073379
vt 0.496374 0.078574
vt 0.451565 0.221783
vt 0.301681 0.011382
vt 0.594596 0.016332
vt 0.147263 0.016228
vt 0.749025 0.020792
vt 0.016382 0.090756
vt 0.880092 0.094992
vt 0.009983 0.203525
vt 0.045293 0.249294
vt 0.851577 0.253601
vt 0.886772 0.207744
vt 0.564486 0.755997
vt 0.518224 0.821871
vt 0.500045 0.732599
vt 0.813164 0.666528
vt 0.832869 0.754649
vt 0.764327 0.713753
vt 0.511879 0.721760
vt 0.798067 0.661546
vt 0.613459 0.787442
vt 0.575311 0.806319
vt 0.774878 0.763718
vt 0.732640 0.762054
vt 0.627004 0.798842
vt 0.619950 0.808920
vt 0.735470 0.784191
vt 0.724986 0.777901
vt 0.679911 0.806152
vt 0.668630 0.832248
vt 0.700822 0.825196
vt 0.594002 0.873391
vt 0.785198 0.832072
vt 0.535980 0.871837
vt 0.837097 0.807089
vt 0.143333 0.315575
vt 0.753704 0.320127
vt 0.174419 0.377677
vt 0.722773 0.382306
vt 0.207222 0.386824
vt 0.689994 0.391535
vt 0.247946 0.427009
vt 0.649370 0.431822
vt 0.270178 0.469838
vt 0.627246 0.474707
vt 0.301126 0.484833
vt 0.596336 0.489779
vt 0.347939 0.477013
vt 0.549503 0.482077
vt 0.363245 0.478714
vt 0.534201 0.483816
vt 0.416557 0.545110
vt 0.405073 0.622040
vt 0.361626 0.594017
vt 0.854183 0.529243
vt 0.813214 0.464772
vt 0.881994 0.486769
vt 0.338213 0.698152
vt 0.944593 0.570881
vt 0.612641 0.688931
vt 0.693750 0.672284
vt 0.664410 0.733127
vt 0.672141 0.769817
vt 0.488112 0.568037
vt 0.758081 0.513825
vt 0.463836 0.535659
vt 0.767001 0.475095
vt 0.343011 0.572892
vt 0.890261 0.460400
vt 0.424196 0.512188
vt 0.447719 0.511396
vt 0.771828 0.446905
vt 0.793264 0.438271
vt 0.309181 0.574788
vt 0.921350 0.448600
vt 0.321137 0.745884
vt 0.978998 0.606904
vt 0.450474 0.737846
vt 0.859675 0.651386
vn 0.809534 0.385662 0.442549
vn 0.449629 0.870907 0.198248
vn 0.411847 0.034761 0.910550
vn -0.411847 0.034761 0.910550
vn -0.449629 0.870907 0.198248
vn -0.809534 0.385662 0.442549
vn 0.252510 0.943693 0.213660
vn -0.605670 0.744804 0.279946
vn -0.116642 0.258187 0.959014
vn 0.116642 0.258187 0.959014
vn 0.605670 0.744804 0.279946
vn -0.252510 0.943693 0.213660
vn 0.350963 -0.425275 0.834223
vn 0.000000 0.009064 0.999939
vn 0.180364 -0.103702 0.978088
vn -0.180364 -0.103702 0.978088
vn -0.350963 -0.425275 0.834223
vn 0.000000 0.794183 0.607654
vn -0.646077 0.763146 0.011261
vn 0.000000 0.753227 0.657735
vn 0.646077 0.763146 0.011261
vn 0.768181 -0.583544 0.263375
vn 0.455367 -0.888150 0.061434
vn 0.618061 0.170141 0.767449
vn -0.618061 0.170141 0.767449
vn -0.455367 -0.888150 0.061434
vn -0.768181 -0.583544 0.263375
vn 0.876919 -0.007202 0.480544
vn -0.876919 -0.007202 0.480544
vn 0.545854 -0.510666 0.664235
vn 0.256142 -0.656880 0.709098
vn -0.150792 -0.601672 -0.784356
vn 0.150792 -0.601672 -0.784356
vn -0.256142 -0.656880 0.709098
vn -0.545854 -0.510666 0.664235
vn 0.473067 0.578997 -0.664022
vn 0.992462 0.028626 -0.118900
vn 0.436232 -0.543779 -0.716910
vn -0.436232 -0.543779 -0.716910
vn -0.992462 0.028626 -0.118900
vn -0.473067 0.578997 -0.664022
vn 0.938963 0.337809 0.064882
vn 0.105167 0.410840 0.905576
vn -0.456313 0.522721 -0.720054
vn 0.456313 0.522721 -0.720054
vn -0.105167 0.410840 0.905576
vn -0.938963 0.337809 0.064882
vn 0.000000 -0.065645 0.997833
vn 0.000000 0.003693 0.999969
vn 0.405377 -0.031587 0.913572
vn -0.405377 -0.031587 0.913572
vn 0.000000 0.112247 0.993652
vn 0.751335 -0.612537 -0.245521
vn -0.751335 -0.612537 -0.245521
vn 0.972320 -0.228034 -0.050417
vn 0.994629 -0.103336 0.002625
vn 0.688650 0.695914 0.203528
vn -0.688650 0.695914 0.203528
vn -0.994629 -0.103336 0.002625
vn -0.972320 -0.228034 -0.050417
vn 0.537126 0.751427 -0.383129
vn -0.537126 0.751427 -0.383129
vn 0.058107 -0.002533 0.998291
vn 0.273782 -0.119266 0.954344
vn 0.282723 0.034791 0.958556
vn -0.282723 0.034791 0.958556
vn -0.273782 -0.119266 0.954344
vn -0.058107 -0.002533 0.998291
vn 0.326060 -0.199225 0.924100
vn -0.326060 -0.199225 0.924100
vn 0.769372 -0.608692 -0.193670
vn -0.769372 -0.608692 -0.193670
vn 0.333934 -0.640492 -0.691549
vn -0.333934 -0.640492 -0.691549
vn 0.315409 0.817957 0.481063
vn -0.315409 0.817957 0.481063
vn 0.581133 0.174078 0.794946
vn -0.581133 0.174078 0.794946
vn 0.596088 -0.222968 0.771294
vn -0.596088 -0.222968 0.771294
vn 0.442396 0.334635 0.832026
vn -0.442396 0.334635 0.832026
vn 0.638539 0.038087 -0.768639
vn -0.638539 0.038087 -0.768639
vn 0.216529 0.767479 -0.603351
vn -0.216529 0.767479 -0.603351
vn -0.494247 0.520585 -0.696158
vn 0.494247 0.520585 -0.696158
vn 0.239784 0.745262 -0.622120
vn -0.239784 0.745262 -0.622120
vn 0.000000 0.897702 0.440535
vn 0.646992 0.649586 -0.399213
vn -0.646992 0.649586 -0.399213
vn 0.000000 0.985778 -0.168035
vn 0.000000 0.482223 -0.876034
vn 0.000000 -0.410596 -0.911802
vn 0.000000 -0.934935 -0.354747
vn 0.000000 -0.657765 -0.753197
vn 0.815027 -0.425977 0.392682
vn 0.441694 -0.882473 0.161657
vn -0.441694 -0.882473 0.161657
vn -0.815027 -0.425977 0.392682
vn 0.932737 0.165624 0.320200
vn -0.932737 0.165624 0.320200
vn 0.902188 -0.070070 0.425581
vn 0.657094 -0.054689 -0.751793
vn -0.657094 -0.054689 -0.751793
vn -0.902188 -0.070070 0.425581
vn 0.483261 -0.816126 0.316813
vn 0.601062 -0.389141 -0.698050
vn -0.601062 -0.389141 -0.698050
vn -0.483261 -0.816126 0.316813
vn 0.000000 -0.940977 0.338359
vn 0.000000 -0.888882 -0.458083
vn 0.000000 -0.220557 -0.975341
vn 0.830683 -0.400586 -0.386608
vn -0.830683 -0.400586 -0.386608
vn 0.643971 0.736106 0.208350
vn -0.643971 0.736106 0.208350
vn -0.834712 0.437819 0.333964
vn 0.834712 0.437819 0.333964
vn 0.000000 0.921537 0.388226
vn -0.088534 0.024689 0.995758
vn 0.188025 -0.227607 0.955412
vn 0.197333 -0.238807 0.950774
vn -0.188025 -0.227607 0.955412
vn 0.088534 0.024689 0.995758
vn -0.197333 -0.238807 0.950774
vn 0.507828 -0.398297 0.763817
vn -0.507828 -0.398297 0.763817
vn 0.000000 -0.096957 0.995270
vn 0.000000 -0.091250 0.995819
vn 0.000000 -0.426344 0.904538
vn 0.000000 -0.297678 0.954650
vn 0.000000 0.069247 0.997589
vn 0.417096 0.121220 0.900723
vn -0.417096 0.121220 0.900723
usemtl None_t10138u_Suzanne.tga
s 1
f 27/1/1 29/2/2 43/3/3
f 44/4/4 30/5/5 28/6/6
f 33/7/7 35/8/8 56/9/9
f 57/10/10 36/11/11 34/12/12
f 3/13/13 58/14/14 50/15/15
f 51/16/16 58/17/14 4/18/17
f 8/19/18 62/20/19 9/21/20
f 9/22/20 63/23/21 8/24/18
f 86/25/22 88/26/23 126/27/24
f 127/28/25 89/29/26 87/30/27
f 86/25/22 126/27/24 124/31/28
f 125/32/29 127/28/25 87/30/27
f 106/33/30 104/34/31 136/35/32
f 137/36/33 105/37/34 107/38/35
f 130/39/36 132/40/37 134/41/38
f 135/42/39 133/43/40 131/44/41
f 82/45/42 102/46/43 128/47/44
f 129/48/45 103/49/46 83/50/47
f 48/51/48 61/52/49 52/53/50
f 53/54/51 61/55/49 48/56/48
f 50/15/15 49/57/52 48/51/48
f 48/56/48 49/58/52 51/16/16
f 50/15/15 48/51/48 52/53/50
f 53/54/51 48/56/48 51/16/16
f 92/59/53 88/26/23 86/25/22
f 87/30/27 89/29/26 93/60/54
f 72/61/55 80/62/56 100/63/57
f 101/64/58 81/65/59 73/66/60
f 72/61/55 100/63/57 70/67/61
f 71/68/62 101/64/58 73/66/60
f 118/69/63 116/70/64 120/71/65
f 121/72/66 117/73/67 119/74/68
f 116/70/64 114/75/69 120/71/65
f 121/72/66 115/76/70 117/73/67
f 92/59/53 86/25/22 74/77/71
f 75/78/72 87/30/27 93/60/54
f 88/79/23 90/80/73 104/34/31
f 105/37/34 91/81/74 89/82/26
f 90/80/73 136/35/32 104/34/31
f 105/37/34 137/36/33 91/81/74
f 82/45/42 128/47/44 136/35/32
f 137/36/33 129/48/45 83/50/47
f 82/45/42 136/35/32 90/80/73
f 91/81/74 137/36/33 83/50/47
f 128/47/44 130/39/36 134/41/38
f 135/42/39 131/44/41 129/48/45
f 128/47/44 134/41/38 136/35/32
f 137/36/33 135/42/39 129/48/45
f 102/46/43 112/83/75 128/47/44
f 129/48/45 113/84/76 103/49/46
f 112/83/75 130/39/36 128/47/44
f 129/48/45 131/44/41 113/84/76
f 112/83/75 110/85/77 130/39/36
f 131/44/41 111/86/78 113/84/76
f 110/85/77 132/40/37 130/39/36
f 131/44/41 133/43/40 111/86/78
f 110/85/77 108/87/79 132/40/37
f 133/43/40 109/88/80 111/86/78
f 108/87/79 134/41/38 132/40/37
f 133/43/40 135/42/39 109/88/80
f 108/87/79 106/33/30 134/41/38
f 135/42/39 107/38/35 109/88/80
f 106/33/30 136/35/32 134/41/38
f 135/42/39 137/36/33 107/38/35
f 122/89/81 120/71/65 82/90/42
f 83/91/47 121/72/66 123/92/82
f 122/89/81 82/90/42 124/93/28
f 125/94/29 83/91/47 123/92/82
f 82/90/42 120/71/65 114/75/69
f 115/76/70 121/72/66 83/91/47
f 80/62/56 86/25/22 124/31/28
f 125/32/29 87/30/27 81/65/59
f 80/62/56 124/31/28 82/95/42
f 83/96/47 125/32/29 81/65/59
f 124/93/28 126/97/24 122/89/81
f 123/92/82 127/98/25 125/94/29
f 82/90/42 114/75/69 102/99/43
f 103/100/46 115/76/70 83/91/47
f 88/101/23 104/102/31 126/103/24
f 127/104/25 105/105/34 89/106/26
f 104/102/31 122/107/81 126/103/24
f 127/104/25 123/108/82 105/105/34
f 106/109/30 120/110/65 122/107/81
f 123/108/82 121/111/66 107/112/35
f 106/109/30 122/107/81 104/102/31
f 105/105/34 123/108/82 107/112/35
f 108/113/79 120/110/65 106/109/30
f 107/112/35 121/111/66 109/114/80
f 110/115/77 118/116/63 108/113/79
f 109/114/80 119/117/68 111/118/78
f 118/116/63 120/110/65 108/113/79
f 109/114/80 121/111/66 119/117/68
f 112/119/75 116/70/64 110/120/77
f 111/121/78 117/73/67 113/122/76
f 116/70/64 118/69/63 110/120/77
f 111/121/78 119/74/68 117/73/67
f 102/99/43 114/75/69 116/70/64
f 117/73/67 115/76/70 103/100/46
f 102/99/43 116/70/64 112/119/75
f 113/122/76 117/73/67 103/100/46
f 82/95/42 90/123/73 84/124/83
f 85/125/84 91/126/74 83/96/47
f 80/62/56 82/95/42 100/63/57
f 101/64/58 83/96/47 81/65/59
f 62/20/19 68/127/85 9/21/20
f 9/22/20 69/128/86 63/23/21
f 68/127/85 70/67/61 9/21/20
f 9/22/20 71/68/62 69/128/86
f 62/20/19 64/129/87 68/127/85
f 69/128/86 65/130/88 63/23/21
f 64/129/87 66/131/89 68/127/85
f 69/128/86 67/132/90 65/130/88
f 9/21/20 70/67/61 100/63/57
f 101/64/58 71/68/62 9/22/20
f 9/21/20 100/63/57 76/133/91
f 76/134/91 101/64/58 9/22/20
f 82/95/42 84/124/83 98/135/92
f 99/136/93 85/125/84 83/96/47
f 82/95/42 98/135/92 100/63/57
f 101/64/58 99/136/93 83/96/47
f 10/137/94 98/135/92 11/138/95
f 11/139/95 99/136/93 10/140/94
f 98/135/92 84/124/83 11/138/95
f 11/139/95 85/125/84 99/136/93
f 76/133/91 100/63/57 10/137/94
f 10/140/94 101/64/58 76/134/91
f 100/63/57 98/135/92 10/137/94
f 10/140/94 99/136/93 101/64/58
f 11/138/95 84/124/83 12/141/96
f 12/142/96 85/125/84 11/139/95
f 84/124/83 90/123/73 12/141/96
f 12/142/96 91/126/74 85/125/84
f 72/61/55 74/77/71 86/25/22
f 87/30/27 75/78/72 73/66/60
f 72/61/55 86/25/22 80/62/56
f 81/65/59 87/30/27 73/66/60
f 13/143/97 88/26/23 92/59/53
f 93/60/54 89/29/26 13/144/97
f 13/143/97 92/59/53 77/145/98
f 77/146/98 93/60/54 13/144/97
f 12/141/96 90/123/73 13/143/97
f 13/144/97 91/126/74 12/142/96
f 90/123/73 88/26/23 13/143/97
f 13/144/97 89/29/26 91/126/74
f 14/147/99 74/77/71 23/148/100
f 24/149/101 75/78/72 15/150/102
f 16/151/103 92/152/53 74/153/71
f 75/154/72 93/155/54 17/156/104
f 16/151/103 74/153/71 14/157/99
f 15/158/102 75/154/72 17/156/104
f 16/151/103 18/159/105 94/160/106
f 95/161/107 19/162/108 17/156/104
f 16/151/103 94/160/106 92/152/53
f 93/155/54 95/161/107 17/156/104
f 18/159/105 20/163/109 96/164/110
f 97/165/111 21/166/112 19/162/108
f 18/159/105 96/164/110 94/160/106
f 95/161/107 97/165/111 19/162/108
f 20/163/109 22/167/113 78/168/114
f 78/169/114 22/167/113 21/166/112
f 20/163/109 78/168/114 96/164/110
f 97/165/111 78/169/114 21/166/112
f 78/168/114 79/170/115 96/164/110
f 97/165/111 79/171/115 78/169/114
f 79/170/115 94/160/106 96/164/110
f 97/165/111 95/161/107 79/171/115
f 79/170/115 77/172/98 94/160/106
f 95/161/107 77/173/98 79/171/115
f 77/172/98 92/152/53 94/160/106
f 95/161/107 93/155/54 77/173/98
f 25/174/116 23/148/100 74/77/71
f 75/78/72 24/149/101 26/175/117
f 25/174/116 74/77/71 72/61/55
f 73/66/60 75/78/72 26/175/117
f 27/176/1 25/174/116 70/67/61
f 71/68/62 26/175/117 28/177/6
f 25/174/116 72/61/55 70/67/61
f 71/68/62 73/66/60 26/175/117
f 29/178/2 27/176/1 70/67/61
f 71/68/62 28/177/6 30/179/5
f 31/180/118 29/178/2 68/127/85
f 69/128/86 30/179/5 32/181/119
f 29/178/2 70/67/61 68/127/85
f 69/128/86 71/68/62 30/179/5
f 33/182/7 31/180/118 66/131/89
f 67/132/90 32/181/119 34/183/12
f 31/180/118 68/127/85 66/131/89
f 67/132/90 69/128/86 32/181/119
f 35/184/8 33/182/7 64/129/87
f 65/130/88 34/183/12 36/185/11
f 33/182/7 66/131/89 64/129/87
f 65/130/88 67/132/90 34/183/12
f 37/186/120 35/184/8 64/129/87
f 65/130/88 36/185/11 38/187/121
f 37/186/120 64/129/87 62/20/19
f 63/23/21 65/130/88 38/187/121
f 5/188/122 37/186/120 62/20/19
f 63/23/21 38/187/121 5/189/122
f 5/188/122 62/20/19 8/19/18
f 8/24/18 63/23/21 5/189/122
f 39/190/123 1/191/124 45/192/125
f 2/193/126 40/194/127 46/195/128
f 45/192/125 1/191/124 43/3/3
f 2/193/126 46/195/128 44/4/4
f 43/3/3 1/191/124 41/196/129
f 2/193/126 44/4/4 42/197/130
f 41/196/129 1/191/124 3/13/13
f 2/193/126 42/197/130 4/18/17
f 52/53/50 60/198/131 16/151/103
f 17/156/104 60/199/131 53/54/51
f 52/53/50 16/151/103 14/157/99
f 15/158/102 17/156/104 53/54/51
f 52/53/50 14/157/99 50/15/15
f 51/16/16 15/158/102 53/54/51
f 49/57/52 50/15/15 58/14/14
f 58/17/14 51/16/16 49/58/52
f 52/53/50 61/52/49 60/198/131
f 60/199/131 61/55/49 53/54/51
f 16/151/103 60/198/131 7/200/132
f 7/200/132 60/199/131 17/156/104
f 16/151/103 7/200/132 18/159/105
f 19/162/108 7/200/132 17/156/104
f 7/200/132 47/201/133 18/159/105
f 19/162/108 47/201/133 7/200/132
f 47/201/133 20/163/109 18/159/105
f 19/162/108 21/166/112 47/201/133
f 47/201/133 22/167/113 20/163/109
f 21/166/112 22/167/113 47/201/133
f 3/13/13 1/191/124 58/14/14
f 2/193/126 4/18/17 58/17/14
f 58/14/14 1/191/124 59/202/134
f 59/203/134 2/193/126 58/17/14
f 6/204/135 1/191/124 39/190/123
f 2/193/126 6/205/135 40/194/127
f 59/202/134 1/191/124 6/204/135
f 2/193/126 59/203/134 6/205/135
f 43/3/3 54/206/136 45/192/125
f 46/195/128 55/207/137 44/4/4
f 45/192/125 54/206/136 39/190/123
f 40/194/127 55/207/137 46/195/128
f 54/206/136 56/9/9 39/190/123
f 40/194/127 57/10/10 55/207/137
f 37/208/120 5/209/122 39/190/123
f 40/194/127 5/210/122 38/211/121
f 5/209/122 6/204/135 39/190/123
f 40/194/127 6/205/135 5/210/122
f 35/8/8 37/208/120 56/9/9
f 57/10/10 38/211/121 36/11/11
f 37/208/120 39/190/123 56/9/9
f 57/10/10 40/194/127 38/211/121
f 31/212/118 33/7/7 54/206/136
f 55/207/137 34/12/12 32/213/119
f 33/7/7 56/9/9 54/206/136
f 55/207/137 57/10/10 34/12/12
f 29/2/2 31/212/118 43/3/3
f 44/4/4 32/213/119 30/5/5
f 31/212/118 54/206/136 43/3/3
f 44/4/4 55/207/137 32/213/119
f 25/214/116 27/1/1 41/196/129
f 42/197/130 28/6/6 26/215/117
f 27/1/1 43/3/3 41/196/129
f 42/197/130 44/4/4 28/6/6
f 23/216/100 25/214/116 41/196/129
f 42/197/130 26/215/117 24/217/101
f 23/216/100 41/196/129 3/13/13
f 4/18/17 42/197/130 24/217/101
f 14/157/99 23/216/100 3/13/13
f 4/18/17 24/217/101 15/158/102
f 14/157/99 3/13/13 50/15/15
f 51/16/16 4/18/17 15/158/102
